<svg xmlns="http://www.w3.org/2000/svg" viewBox="0 0 1626.85 340" width="1626.85" height="340" role="img" aria-label="ZVON">
<g fill="#fbfaf8"><path d="M2.15 288.57L64.9 108.37A110.37 110.37 0 0 1 270.62 101.27A38.7 38.7 0 0 1 199.45 131.7A32.97 32.97 0 0 0 138 133.82L75.25 314.03A38.7 38.7 0 0 1 2.15 288.57Z"></path><path d="M306.76 215.29A32.97 32.97 0 0 0 367.32 210.97L430.54 26.17A38.7 38.7 0 0 1 503.77 51.23L440.55 236.02A110.37 110.37 0 0 1 237.83 250.49A38.7 38.7 0 0 1 306.76 215.29Z"></path></g>
<path fill="#00c4c4" d="M542.68 53.97L542.68 97.19L675.79 97.19L542.68 257.49L542.68 295.31L752.72 295.31L752.72 250.32L607.13 250.32L750.96 78.89L750.96 53.97L542.68 53.97Z"></path><path fill="#00c4c4" d="M774.97 53.97L876.62 295.31L936.04 295.31L1037.13 53.97L980.31 53.97L907.12 242.55L834.22 53.97L774.97 53.97Z"></path>
<path fill="#fbfaf8" fill-rule="evenodd" d="M1058.75 174.98A132.49 125.56 0 0 1 1323.73 174.98A132.49 125.56 0 0 1 1058.75 174.98ZM1105.52 174.98A85.72 82.11 0 0 1 1276.96 174.98A85.72 82.11 0 0 1 1105.52 174.98Z"></path><path fill="#fbfaf8" d="M1365.4 53.97L1365.4 295.31L1415.12 295.31L1415.12 126.19L1542.69 295.31L1591.77 295.31L1591.77 53.97L1544.49 53.97L1544.49 219.74L1421.74 53.97L1365.4 53.97Z"></path>
</svg>