<svg xmlns="http://www.w3.org/2000/svg" viewBox="0 0 920 560" width="920" height="560" font-family="-apple-system,BlinkMacSystemFont,'Helvetica Neue',Helvetica,Arial,sans-serif">
  <defs>
    <linearGradient id="tile" x1="0" y1="0" x2="1" y2="1"><stop offset="0" stop-color="#12A8A8"/><stop offset="1" stop-color="#0C8A8B"/></linearGradient>
  </defs>
  <rect x="0" y="0" width="920" height="560" rx="18" fill="#0B1413"/>
  <rect x="0.5" y="0.5" width="919" height="559" rx="17.5" fill="none" stroke="#182220"/>

  <!-- ===== collapsed tile, recording ===== -->
  <text x="96" y="66" text-anchor="middle" font-size="11" letter-spacing="0.8" fill="#6C7A78">СВЁРНУТ · ЗАПИСЬ</text>
  <rect x="65" y="86" width="62" height="62" rx="17" fill="url(#tile)"/>
  <g transform="translate(78,105) scale(0.0283)" fill="#FBFAF8">
    <path d="M36.384 162.343L79.59 162.343A30.995 27.26 0 0 0 107.376 147.162L161.448 50.95A103.763 91.26 0 0 1 352.975 62.714L435.869 282.997A30.995 27.26 0 0 0 493.851 285.028L559.786 147.575A36.384 32 0 0 1 626.832 172.453L560.896 309.906A103.763 91.26 0 0 1 366.786 303.106L283.892 82.823A30.995 27.26 0 0 0 226.682 79.309L172.61 175.522A103.763 91.26 0 0 1 79.59 226.343L36.384 226.343A36.384 32 0 0 1 36.384 162.343Z"></path>
    <path d="M604.86 53.705A103.763 91.26 0 0 1 794.453 55.142L908.231 285.335A30.995 27.26 0 0 0 963.746 287.714L1027.726 186.502A103.763 91.26 0 0 1 1118.415 139.587L1229.841 139.587A36.384 32 0 0 1 1229.841 203.587L1118.415 203.587A30.995 27.26 0 0 0 1091.325 217.601L1027.345 318.813A103.763 91.26 0 0 1 841.496 310.851L727.718 80.657A30.995 27.26 0 0 0 671.085 80.228A36.384 32 0 0 1 604.86 53.705Z"></path>
  </g>
  <circle cx="124" cy="90" r="8" fill="#DE3E2D" stroke="#0B1413" stroke-width="2.5"/>
  <rect x="76" y="150" width="40" height="18" rx="9" fill="#101817" stroke="#253130"/>
  <text x="96" y="163" text-anchor="middle" font-size="10.5" fill="#F2F5F4" font-family="ui-monospace,Menlo,monospace">24:31</text>

  <!-- ===== expanded panel, recording ===== -->
  <text x="528" y="66" text-anchor="middle" font-size="11" letter-spacing="0.8" fill="#6C7A78">РАЗВЁРНУТ · ЗАПИСЬ · 376 px</text>
  <rect x="340" y="78" width="376" height="228" rx="14" fill="#101817" stroke="#253130"/>
  <!-- header -->
  <circle cx="356" cy="99" r="3.5" fill="#FF6B57"/>
  <text x="366" y="103" font-size="12.5" font-weight="600" fill="#F2F5F4">Запись</text>
  <text x="414" y="103" font-size="12" fill="#8B9A97" font-family="ui-monospace,Menlo,monospace">24:31</text>
  <text x="674" y="103" text-anchor="end" font-size="11.5" fill="#3E9D9D">локально</text>
  <text x="700" y="103" font-size="11" fill="#6C7A78">⌃</text>
  <line x1="340" y1="116" x2="716" y2="116" stroke="#1B2524"/>
  <!-- mic track (right, accent) -->
  <g stroke="#00C4C4" stroke-width="2.5" stroke-linecap="round"><line x1="600" y1="140" x2="600" y2="134"/><line x1="606" y1="141" x2="606" y2="132"/><line x1="612" y1="140" x2="612" y2="130"/><line x1="618" y1="141" x2="618" y2="133"/></g>
  <text x="700" y="140" text-anchor="end" font-size="10" letter-spacing="0.6" fill="#3E9D9D">МИКРОФОН · ВЫ</text>
  <path d="M446 150 h250 a10 10 0 0 1 10 10 v14 a3 3 0 0 1 -3 3 h-257 a10 10 0 0 1 -10 -10 v-7 a10 10 0 0 1 10 -10 z" fill="#00C4C4" fill-opacity="0.16" stroke="#00C4C4" stroke-opacity="0.28"/>
  <text x="700" y="172" text-anchor="end" font-size="12.5" fill="#DFF7F7">Аню попросим закрыть миграцию до среды</text>
  <!-- собеседник track (left, grey) -->
  <text x="354" y="205" font-size="10" letter-spacing="0.6" fill="#6C7A78">ДИНАМИК · СОБЕСЕДНИК</text>
  <circle cx="500" cy="201" r="1.8" fill="#6C7A78"/><circle cx="507" cy="201" r="1.8" fill="#6C7A78"/><circle cx="514" cy="201" r="1.8" fill="#6C7A78"/>
  <path d="M363 214 h286 a10 10 0 0 1 10 10 v7 a10 10 0 0 1 -10 10 h-283 a3 3 0 0 1 -3 -3 v-24 z" fill="#1B2524"/>
  <text x="376" y="236" font-size="12.5" fill="#DFE6E5">Тогда релиз ставим на четверг, я поправлю биллинг…</text>
  <!-- footer -->
  <line x1="340" y1="266" x2="716" y2="266" stroke="#1B2524"/>
  <rect x="356" y="277" width="108" height="26" rx="7" fill="#00C4C4"/>
  <text x="410" y="294" text-anchor="middle" font-size="12" font-weight="600" fill="#04201F">Подвести итог</text>
  <text x="478" y="294" font-size="12" fill="#A9B6B4">Заметки</text>
  <text x="700" y="294" text-anchor="end" font-size="11" fill="#5B6866" font-family="ui-monospace,Menlo,monospace">⌘M</text>

  <!-- ===== dictation capsule ===== -->
  <text x="460" y="392" text-anchor="middle" font-size="11" letter-spacing="0.8" fill="#6C7A78">КАПСУЛА ДИКТОВКИ</text>
  <rect x="242" y="410" width="436" height="46" rx="23" fill="#0E1615"/>
  <rect x="242.5" y="410.5" width="435" height="45" rx="22.5" fill="none" stroke="#1F2A29"/>
  <g transform="translate(266,424) scale(0.019)" fill="#FBFAF8">
    <path d="M36.384 162.343L79.59 162.343A30.995 27.26 0 0 0 107.376 147.162L161.448 50.95A103.763 91.26 0 0 1 352.975 62.714L435.869 282.997A30.995 27.26 0 0 0 493.851 285.028L559.786 147.575A36.384 32 0 0 1 626.832 172.453L560.896 309.906A103.763 91.26 0 0 1 366.786 303.106L283.892 82.823A30.995 27.26 0 0 0 226.682 79.309L172.61 175.522A103.763 91.26 0 0 1 79.59 226.343L36.384 226.343A36.384 32 0 0 1 36.384 162.343Z"></path>
    <path d="M604.86 53.705A103.763 91.26 0 0 1 794.453 55.142L908.231 285.335A30.995 27.26 0 0 0 963.746 287.714L1027.726 186.502A103.763 91.26 0 0 1 1118.415 139.587L1229.841 139.587A36.384 32 0 0 1 1229.841 203.587L1118.415 203.587A30.995 27.26 0 0 0 1091.325 217.601L1027.345 318.813A103.763 91.26 0 0 1 841.496 310.851L727.718 80.657A30.995 27.26 0 0 0 671.085 80.228A36.384 32 0 0 1 604.86 53.705Z"></path>
  </g>
  <g fill="#00C4C4"><rect x="306" y="428" width="3" height="10" rx="1.5"/><rect x="312" y="424" width="3" height="18" rx="1.5"/><rect x="318" y="420" width="3" height="26" rx="1.5"/><rect x="324" y="426" width="3" height="14" rx="1.5"/><rect x="330" y="422" width="3" height="22" rx="1.5"/><rect x="336" y="428" width="3" height="10" rx="1.5"/><rect x="342" y="425" width="3" height="16" rx="1.5"/></g>
  <text x="364" y="437" font-size="12.5" fill="#F2F5F4">Отпустите, чтобы вставить</text>
  <line x1="556" y1="424" x2="556" y2="442" stroke="#2B3736"/>
  <text x="572" y="437" font-size="11.5" fill="#8B9A97" font-family="ui-monospace,Menlo,monospace">правый ⌘</text>

  <text x="460" y="512" text-anchor="middle" font-size="12.5" fill="#8B9A97">Красный — только запись. Тил — акцент. Всё живёт поверх окон, фокус не забирает.</text>
</svg>
